<svg xmlns="http://www.w3.org/2000/svg" viewBox="0 0 100 100">
  <!-- 脑图标 -->
  <defs>
    <linearGradient id="brainGrad" x1="0%" y1="0%" x2="100%" y2="100%">
      <stop offset="0%" style="stop-color:#6366f1;stop-opacity:1" />
      <stop offset="100%" style="stop-color:#8b5cf6;stop-opacity:1" />
    </linearGradient>
  </defs>
  <!-- 大脑轮廓 -->
  <path fill="url(#brainGrad)" d="M50 10c-22 0-40 18-40 40s18 40 40 40 40-18 40-40-18-40-40-40zm0 75c-19.3 0-35-15.7-35-35s15.7-35 35-35 35 15.7 35 35-15.7 35-35 35z"/>
  <!-- 大脑纹理 -->
  <path fill="none" stroke="url(#brainGrad)" stroke-width="2" stroke-linecap="round" d="M30 35c5-5 15-5 20 0s5 15 0 20-15 5-20 0"/>
  <path fill="none" stroke="url(#brainGrad)" stroke-width="2" stroke-linecap="round" d="M50 35c5-5 15-5 20 0s5 15 0 20-15 5-20 0"/>
  <path fill="none" stroke="url(#brainGrad)" stroke-width="2" stroke-linecap="round" d="M35 55c3 5 10 8 15 8s12-3 15-8"/>
  <!-- 记忆符号 - 小点 -->
  <circle cx="35" cy="45" r="3" fill="url(#brainGrad)"/>
  <circle cx="50" cy="42" r="3" fill="url(#brainGrad)"/>
  <circle cx="65" cy="45" r="3" fill="url(#brainGrad)"/>
  <circle cx="42" cy="55" r="2" fill="url(#brainGrad)"/>
  <circle cx="58" cy="55" r="2" fill="url(#brainGrad)"/>
</svg>
